<svg width="177" height="202" viewBox="0 0 177 202" fill="none" xmlns="http://www.w3.org/2000/svg">
<rect x="80.8872" y="112.611" width="33.3676" height="9" transform="rotate(-55 80.8872 112.611)" fill="url(#paint0_linear_0_1)" stroke="black"/>
<path d="M75.5989 55.9185C78.0013 58.2762 81.6481 61.2689 86.5392 64.8963C91.4168 68.4468 97.3914 72.6978 104.463 77.6493L139.141 101.931C144.671 105.803 149.195 110.052 152.712 114.677C156.185 119.27 158.482 124.189 159.606 129.434C160.761 134.634 160.636 140.12 159.23 145.891C157.778 151.63 154.91 157.559 150.625 163.679C146.276 169.889 141.638 174.681 136.709 178.053C131.767 181.348 126.64 183.365 121.326 184.103C116.013 184.841 110.589 184.387 105.054 182.741C99.5048 181.017 93.9652 178.219 88.4349 174.347L53.7569 150.065C47.048 145.367 41.0847 141.293 35.8671 137.843C30.6359 134.315 26.5017 131.825 23.4645 130.374L33.2248 116.435L94.4212 159.285C98.8636 162.396 103.145 164.819 107.266 166.556C111.341 168.262 115.283 169.096 119.091 169.061C122.854 168.993 126.463 167.94 129.918 165.9C133.327 163.829 136.603 160.549 139.745 156.061C142.824 151.664 144.738 147.532 145.487 143.665C146.19 139.766 145.914 136.06 144.658 132.547C143.39 128.956 141.257 125.537 138.261 122.291C135.219 119.013 131.477 115.818 127.035 112.708L65.8385 69.8577L75.5989 55.9185Z" fill="url(#paint1_linear_0_1)"/>
<path d="M75.5989 55.9185L76.2993 55.2048L75.4568 54.3779L74.7797 55.3449L75.5989 55.9185ZM86.5392 64.8963L85.9435 65.6996L85.9507 65.7048L86.5392 64.8963ZM152.712 114.677L153.51 114.074L153.508 114.071L152.712 114.677ZM159.606 129.434L158.628 129.644L158.63 129.651L159.606 129.434ZM159.23 145.891L160.199 146.136L160.201 146.128L159.23 145.891ZM136.709 178.053L137.264 178.885L137.274 178.878L136.709 178.053ZM105.054 182.741L104.757 183.696L104.768 183.699L105.054 182.741ZM35.8671 137.843L35.308 138.672L35.3155 138.677L35.8671 137.843ZM23.4645 130.374L22.6453 129.801L21.9682 130.768L23.0334 131.276L23.4645 130.374ZM33.2248 116.435L33.7984 115.616L32.9792 115.042L32.4056 115.861L33.2248 116.435ZM107.266 166.556L106.877 167.478L106.88 167.479L107.266 166.556ZM119.091 169.061L119.101 170.061L119.109 170.06L119.091 169.061ZM129.918 165.9L130.426 166.761L130.437 166.755L129.918 165.9ZM145.487 143.665L146.468 143.855L146.471 143.843L145.487 143.665ZM144.658 132.547L143.716 132.88L143.717 132.883L144.658 132.547ZM138.261 122.291L138.996 121.613L138.994 121.611L138.261 122.291ZM65.8385 69.8577L65.0194 69.2841L64.4458 70.1032L65.265 70.6768L65.8385 69.8577ZM74.8984 56.6322C77.3499 59.0381 81.0399 62.0628 85.9435 65.6996L87.1349 64.0931C82.2563 60.4749 78.6527 57.5144 76.2993 55.2048L74.8984 56.6322ZM85.9507 65.7048C90.8348 69.26 96.8147 73.5148 103.889 78.4685L105.037 76.8302C97.968 71.8808 91.9988 67.6335 87.1277 64.0879L85.9507 65.7048ZM103.889 78.4685L138.567 102.75L139.715 101.112L105.037 76.8302L103.889 78.4685ZM138.567 102.75C144.026 106.573 148.471 110.752 151.917 115.282L153.508 114.071C149.919 109.352 145.316 105.034 139.715 101.112L138.567 102.75ZM151.915 115.28C155.305 119.765 157.537 124.551 158.628 129.644L160.584 129.225C159.427 123.826 157.064 118.774 153.51 114.074L151.915 115.28ZM158.63 129.651C159.748 134.685 159.632 140.015 158.258 145.654L160.201 146.128C161.639 140.225 161.774 134.583 160.582 129.217L158.63 129.651ZM158.26 145.646C156.845 151.241 154.039 157.06 149.806 163.106L151.444 164.253C155.781 158.059 158.711 152.019 160.199 146.136L158.26 145.646ZM149.806 163.106C145.508 169.243 140.951 173.939 136.145 177.228L137.274 178.878C142.325 175.423 147.044 170.536 151.444 164.253L149.806 163.106ZM136.155 177.221C131.324 180.442 126.338 182.397 121.189 183.113L121.464 185.094C126.942 184.332 132.21 182.255 137.264 178.885L136.155 177.221ZM121.189 183.113C116.028 183.83 110.747 183.391 105.339 181.782L104.768 183.699C110.43 185.383 115.998 185.853 121.464 185.094L121.189 183.113ZM105.35 181.786C99.9147 180.097 94.4675 177.35 89.0084 173.528L87.8613 175.166C93.463 179.088 99.0948 181.937 104.757 183.696L105.35 181.786ZM89.0084 173.528L54.3305 149.246L53.1833 150.884L87.8613 175.166L89.0084 173.528ZM54.3305 149.246C47.6164 144.545 41.6456 140.465 36.4187 137.008L35.3155 138.677C40.5238 142.121 46.4796 146.19 53.1833 150.884L54.3305 149.246ZM36.4262 137.013C31.183 133.477 27.0002 130.955 23.8956 129.472L23.0334 131.276C26.0032 132.695 30.0889 135.152 35.308 138.672L36.4262 137.013ZM24.2836 130.948L34.0439 117.009L32.4056 115.861L22.6453 129.801L24.2836 130.948ZM32.6512 117.254L93.8476 160.104L94.9948 158.466L33.7984 115.616L32.6512 117.254ZM93.8476 160.104C98.3362 163.247 102.68 165.708 106.877 167.478L107.654 165.635C103.611 163.931 99.391 161.544 94.9948 158.466L93.8476 160.104ZM106.88 167.479C111.061 169.228 115.137 170.098 119.101 170.06L119.082 168.061C115.429 168.095 111.622 167.295 107.652 165.634L106.88 167.479ZM119.109 170.06C123.056 169.99 126.833 168.882 130.426 166.761L129.409 165.039C126.093 166.997 122.652 167.997 119.073 168.061L119.109 170.06ZM130.437 166.755C134 164.59 137.371 161.196 140.565 156.635L138.926 155.488C135.836 159.902 132.654 163.067 129.398 165.045L130.437 166.755ZM140.565 156.635C143.696 152.162 145.685 147.9 146.468 143.855L144.505 143.475C143.791 147.164 141.952 151.166 138.926 155.488L140.565 156.635ZM146.471 143.843C147.203 139.783 146.918 135.899 145.6 132.21L143.717 132.883C144.91 136.222 145.177 139.75 144.502 143.488L146.471 143.843ZM145.601 132.213C144.281 128.476 142.069 124.943 138.996 121.613L137.526 122.969C140.445 126.132 142.499 129.436 143.716 132.88L145.601 132.213ZM138.994 121.611C135.895 118.271 132.097 115.032 127.609 111.889L126.461 113.527C130.858 116.605 134.543 119.754 137.528 122.971L138.994 121.611ZM127.609 111.889L66.4121 69.0385L65.265 70.6768L126.461 113.527L127.609 111.889ZM66.6577 70.4312L76.418 56.492L74.7797 55.3449L65.0194 69.2841L66.6577 70.4312Z" fill="black"/>
<path d="M101.133 145.923C98.7308 143.565 95.084 140.573 90.1928 136.945C85.3153 133.395 79.3407 129.144 72.2691 124.192L37.5912 99.9106C32.0608 96.0382 27.537 91.7897 24.0196 87.165C20.5476 82.5721 18.2498 77.6529 17.1262 72.4075C15.9709 67.2074 16.0963 61.7218 17.5025 55.9509C18.954 50.2116 21.8223 44.2822 26.1073 38.1626C30.4558 31.9523 35.0943 27.161 40.0226 23.7888C44.9646 20.4936 50.0923 18.4769 55.4057 17.7387C60.7191 17.0004 66.1433 17.4545 71.6785 19.101C77.2273 20.8245 82.7669 23.6224 88.2972 27.4948L122.975 51.7766C129.684 56.4742 135.647 60.5484 140.865 63.9992C146.096 67.527 150.23 70.0164 153.268 71.4676L143.507 85.4068L82.3109 42.5566C77.8685 39.446 73.5869 37.0222 69.4662 35.2853C65.3908 33.5801 61.449 32.7454 57.6409 32.7812C53.8781 32.8486 50.2692 33.9022 46.8144 35.9418C43.4049 38.0131 40.129 41.2926 36.9867 45.7804C33.9078 50.1775 31.9941 54.3095 31.2455 58.1765C30.5423 62.0752 30.8183 65.7814 32.0736 69.295C33.3425 72.8857 35.475 76.3043 38.4712 79.5507C41.5127 82.8289 45.2547 86.0232 49.6971 89.1338L110.894 131.984L101.133 145.923Z" fill="url(#paint2_linear_0_1)"/>
<path d="M101.133 145.923L100.433 146.637L101.275 147.464L101.952 146.497L101.133 145.923ZM90.1928 136.945L90.7886 136.142L90.7814 136.137L90.1928 136.945ZM24.0196 87.165L23.2219 87.768L23.2236 87.7704L24.0196 87.165ZM17.1262 72.4075L18.104 72.198L18.1024 72.1906L17.1262 72.4075ZM17.5025 55.9509L16.533 55.7057L16.5309 55.7141L17.5025 55.9509ZM40.0226 23.7888L39.4679 22.9567L39.4579 22.9635L40.0226 23.7888ZM71.6785 19.101L71.9752 18.1459L71.9636 18.1425L71.6785 19.101ZM140.865 63.9992L141.424 63.17L141.417 63.1651L140.865 63.9992ZM153.268 71.4676L154.087 72.0412L154.764 71.0742L153.699 70.5653L153.268 71.4676ZM143.507 85.4068L142.934 86.2259L143.753 86.7995L144.326 85.9803L143.507 85.4068ZM69.4662 35.2853L69.8546 34.3638L69.8522 34.3628L69.4662 35.2853ZM57.6409 32.7812L57.6315 31.7812L57.623 31.7813L57.6409 32.7812ZM46.8144 35.9418L46.306 35.0806L46.2952 35.0871L46.8144 35.9418ZM31.2455 58.1765L30.2637 57.9864L30.2614 57.999L31.2455 58.1765ZM32.0736 69.295L33.0165 68.9618L33.0153 68.9586L32.0736 69.295ZM38.4712 79.5507L37.7364 80.2289L37.7382 80.2309L38.4712 79.5507ZM110.894 131.984L111.713 132.558L112.286 131.738L111.467 131.165L110.894 131.984ZM101.834 145.21C99.3822 142.804 95.6922 139.779 90.7885 136.142L89.5972 137.749C94.4758 141.367 98.0794 144.327 100.433 146.637L101.834 145.21ZM90.7814 136.137C85.8972 132.582 79.9174 128.327 72.8427 123.373L71.6955 125.012C78.7641 129.961 84.7333 134.208 89.6043 137.754L90.7814 136.137ZM72.8427 123.373L38.1647 99.0914L37.0176 100.73L71.6955 125.012L72.8427 123.373ZM38.1647 99.0914C32.7057 95.269 28.2611 91.0899 24.8155 86.5596L23.2236 87.7704C26.8128 92.4895 31.4159 96.8074 37.0176 100.73L38.1647 99.0914ZM24.8173 86.562C21.4268 82.0768 19.1948 77.2904 18.104 72.198L16.1484 72.6169C17.3047 78.0154 19.6684 83.0673 23.2219 87.768L24.8173 86.562ZM18.1024 72.1906C16.984 67.1565 17.0999 61.827 18.4741 56.1876L16.5309 55.7141C15.0927 61.6166 14.9578 67.2582 16.15 72.6243L18.1024 72.1906ZM18.472 56.1961C19.8871 50.6008 22.6936 44.7813 26.9265 38.7362L25.2882 37.589C20.951 43.7831 18.021 49.8225 16.533 55.7057L18.472 56.1961ZM26.9265 38.7362C31.2238 32.599 35.7809 27.9028 40.5873 24.614L39.4579 22.9635C34.4076 26.4192 29.6879 31.3056 25.2882 37.589L26.9265 38.7362ZM40.5774 24.6208C45.4077 21.4001 50.3945 19.4445 55.5433 18.7291L55.2681 16.7482C49.7901 17.5093 44.5216 19.5871 39.4679 22.9567L40.5774 24.6208ZM55.5433 18.7291C60.7045 18.0121 65.9846 18.4506 71.3934 20.0595L71.9636 18.1425C66.3021 16.4585 60.7336 15.9888 55.2681 16.7482L55.5433 18.7291ZM71.3819 20.056C76.8174 21.7443 82.2646 24.4915 87.7236 28.314L88.8708 26.6757C83.2691 22.7533 77.6372 19.9047 71.9752 18.146L71.3819 20.056ZM87.7236 28.314L122.402 52.5957L123.549 50.9574L88.8708 26.6757L87.7236 28.314ZM122.402 52.5957C129.116 57.297 135.087 61.3764 140.313 64.8333L141.417 63.1651C136.208 59.7205 130.253 55.6515 123.549 50.9574L122.402 52.5957ZM140.306 64.8283C145.549 68.3642 149.732 70.8865 152.837 72.3699L153.699 70.5653C150.729 69.1463 146.643 66.6897 141.424 63.1701L140.306 64.8283ZM152.448 70.894L142.688 84.8332L144.326 85.9803L154.087 72.0412L152.448 70.894ZM144.081 84.5876L82.8845 41.7374L81.7373 43.3757L142.934 86.2259L144.081 84.5876ZM82.8845 41.7374C78.3959 38.5945 74.0525 36.1333 69.8546 34.3638L69.0778 36.2068C73.1213 37.9112 77.3411 40.2974 81.7373 43.3757L82.8845 41.7374ZM69.8522 34.3628C65.6715 32.6136 61.5953 31.744 57.6315 31.7812L57.6503 33.7811C61.3028 33.7468 65.1102 34.5467 69.0802 36.2078L69.8522 34.3628ZM57.623 31.7813C53.676 31.8521 49.8995 32.9592 46.306 35.0806L47.3228 36.8029C50.639 34.8451 54.0801 33.8452 57.6588 33.781L57.623 31.7813ZM46.2952 35.0871C42.7319 37.2519 39.3615 40.6454 36.1675 45.2068L37.8058 46.354C40.8966 41.9399 44.0779 38.7743 47.3336 36.7964L46.2952 35.0871ZM36.1675 45.2068C33.0356 49.6796 31.0468 53.9412 30.2637 57.9864L32.2273 58.3665C32.9414 54.6778 34.78 50.6753 37.8058 46.354L36.1675 45.2068ZM30.2614 57.999C29.5291 62.0587 29.8141 65.9429 31.1319 69.6315L33.0153 68.9586C31.8225 65.6198 31.5554 62.0916 32.2296 58.354L30.2614 57.999ZM31.1307 69.6282C32.4515 73.3657 34.6627 76.8986 37.7364 80.2289L39.2061 78.8725C36.2873 75.71 34.2335 72.4058 33.0165 68.9618L31.1307 69.6282ZM37.7382 80.2309C40.8367 83.5704 44.635 86.8101 49.1235 89.953L50.2707 88.3147C45.8744 85.2364 42.1888 82.0873 39.2043 78.8706L37.7382 80.2309ZM49.1235 89.953L110.32 132.803L111.467 131.165L50.2707 88.3147L49.1235 89.953ZM110.074 131.41L100.314 145.35L101.952 146.497L111.713 132.558L110.074 131.41Z" fill="black"/>
<defs>
<linearGradient id="paint0_linear_0_1" x1="112.889" y1="115.671" x2="110.941" y2="125.704" gradientUnits="userSpaceOnUse">
<stop stop-color="#B71C1C"/>
<stop offset="0.9999" stop-color="white" stop-opacity="0.489583"/>
<stop offset="1" stop-color="white" stop-opacity="0"/>
</linearGradient>
<linearGradient id="paint1_linear_0_1" x1="76.1369" y1="44.0903" x2="71.4068" y2="200.505" gradientUnits="userSpaceOnUse">
<stop stop-color="#B71C1C"/>
<stop offset="0.9999" stop-color="white" stop-opacity="0.489583"/>
<stop offset="1" stop-color="white" stop-opacity="0"/>
</linearGradient>
<linearGradient id="paint2_linear_0_1" x1="100.595" y1="157.751" x2="105.325" y2="1.33664" gradientUnits="userSpaceOnUse">
<stop stop-color="#B71C1C"/>
<stop offset="0.9999" stop-color="white" stop-opacity="0.489583"/>
<stop offset="1" stop-color="white" stop-opacity="0"/>
</linearGradient>
</defs>
</svg>
