<svg width="177" height="202" viewBox="0 0 177 202" fill="none" xmlns="http://www.w3.org/2000/svg">
<rect width="177" height="202" fill="#1E1E1E"/>
<rect x="80.1909" y="112.734" width="34.3676" height="10" transform="rotate(-55 80.1909 112.734)" fill="white"/>
<path d="M75.5989 55.9185C78.0013 58.2762 81.6481 61.2689 86.5392 64.8963C91.4168 68.4468 97.3914 72.6978 104.463 77.6493L139.141 101.931C144.671 105.803 149.195 110.052 152.712 114.677C156.185 119.27 158.482 124.189 159.606 129.434C160.761 134.634 160.636 140.12 159.23 145.891C157.778 151.63 154.91 157.559 150.625 163.679C146.276 169.889 141.638 174.681 136.709 178.053C131.767 181.348 126.64 183.365 121.326 184.103C116.013 184.841 110.589 184.387 105.054 182.741C99.5048 181.017 93.9652 178.219 88.4349 174.347L53.7569 150.065C47.048 145.367 41.0847 141.293 35.8671 137.843C30.6359 134.315 26.5017 131.825 23.4645 130.374L33.2248 116.435L94.4212 159.285C98.8636 162.396 103.145 164.819 107.266 166.556C111.341 168.262 115.283 169.096 119.091 169.061C122.854 168.993 126.463 167.94 129.918 165.9C133.327 163.829 136.603 160.549 139.745 156.061C142.824 151.664 144.738 147.532 145.487 143.665C146.19 139.766 145.914 136.06 144.658 132.547C143.39 128.956 141.257 125.537 138.261 122.291C135.219 119.013 131.477 115.818 127.035 112.708L65.8385 69.8577L75.5989 55.9185Z" fill="white"/>
<path d="M101.133 145.923C98.7308 143.565 95.084 140.573 90.1928 136.945C85.3153 133.395 79.3407 129.144 72.2691 124.192L37.5912 99.9106C32.0608 96.0382 27.537 91.7897 24.0196 87.165C20.5476 82.5721 18.2498 77.6529 17.1262 72.4075C15.9709 67.2074 16.0963 61.7218 17.5025 55.9509C18.954 50.2116 21.8223 44.2822 26.1073 38.1626C30.4558 31.9523 35.0943 27.161 40.0226 23.7888C44.9646 20.4936 50.0923 18.4769 55.4057 17.7387C60.7191 17.0004 66.1433 17.4545 71.6785 19.101C77.2273 20.8245 82.7669 23.6224 88.2972 27.4948L122.975 51.7766C129.684 56.4742 135.647 60.5484 140.865 63.9992C146.096 67.527 150.23 70.0164 153.268 71.4676L143.507 85.4068L82.3109 42.5566C77.8685 39.446 73.5869 37.0222 69.4662 35.2853C65.3908 33.5801 61.449 32.7454 57.6409 32.7812C53.8781 32.8486 50.2692 33.9022 46.8144 35.9418C43.4049 38.0131 40.129 41.2926 36.9867 45.7804C33.9078 50.1775 31.9941 54.3095 31.2455 58.1765C30.5423 62.0752 30.8183 65.7814 32.0736 69.295C33.3425 72.8857 35.475 76.3043 38.4712 79.5507C41.5127 82.8289 45.2547 86.0232 49.6971 89.1338L110.894 131.984L101.133 145.923Z" fill="white"/>
</svg>
